# xmcd
#
# Track frame offsets:
#	150
#	20158
#	41422
#	57952
#	72829
#	86180
#	108470
#
# Disc length: 1648 seconds
#
# Revision: 0
# Processed by: cddbd v1.5.2PL0 Copyright (c) Steve Scherf et al.
# Submitted via: audiograbber 1.83.01
#
DISCID=5d066e07
DTITLE=Blues Arcadia - Blues Arcadia
DYEAR=2016
DGENRE=Blues
TTITLE0=Corner Girls
TTITLE1=Take the Money
TTITLE2=Miss Lonely
TTITLE3=Here Comes the Rain
TTITLE4=Operator Please
TTITLE5=Time and Again
TTITLE6=Rockin' Chair
EXTD=
EXTT0=
EXTT1=
EXTT2=
EXTT3=
EXTT4=
EXTT5=
EXTT6=
PLAYORDER=
